<?xml version="1.0" standalone="no"?>
<!DOCTYPE svg PUBLIC "-//W3C//DTD SVG 20010904//EN"
 "http://www.w3.org/TR/2001/REC-SVG-20010904/DTD/svg10.dtd">
<svg version="1.0" xmlns="http://www.w3.org/2000/svg"
 width="1000.000000pt" height="1000.000000pt" viewBox="0 0 1000.000000 1000.000000"
 preserveAspectRatio="xMidYMid meet">
<metadata>
Created by potrace 1.16, written by Peter Selinger 2001-2019
</metadata>
<g transform="translate(0.000000,1000.000000) scale(0.100000,-0.100000)"
fill="#000000" stroke="none">
<path d="M1660 8748 c-24 -13 -53 -36 -64 -51 -20 -28 -21 -42 -24 -512 l-3
-484 70 -36 c39 -19 73 -35 76 -35 3 0 5 78 5 173 l0 172 111 110 c182 181
182 186 8 361 -95 96 -120 126 -117 144 1 13 9 25 16 28 8 2 92 -74 191 -172
l177 -176 379 0 380 0 176 176 c126 126 182 175 193 171 33 -13 12 -45 -109
-167 l-125 -127 0 -48 0 -48 125 -127 125 -126 0 -172 c0 -95 2 -172 5 -172 3
0 37 16 75 37 l70 36 0 465 c0 444 -1 468 -20 506 -25 51 -76 87 -134 93 -82
10 -108 -7 -287 -183 l-165 -164 -309 0 -309 0 -162 160 c-94 94 -176 166
-197 175 -51 21 -106 19 -157 -7z m1590 -475 l0 -178 -85 85 c-47 47 -85 89
-85 95 0 8 159 175 167 175 2 0 3 -80 3 -177z m-1407 58 c57 -61 58 -57 -47
-161 l-76 -74 0 173 0 173 38 -30 c21 -17 59 -53 85 -81z"/>
<path d="M4460 8191 c-89 -29 -141 -60 -206 -125 -100 -100 -144 -209 -144
-356 0 -147 44 -256 144 -356 65 -65 127 -102 215 -128 49 -14 241 -16 2016
-16 1775 0 1967 2 2016 16 88 26 150 63 215 128 100 100 144 209 144 356 0
147 -44 256 -144 356 -65 65 -127 102 -215 128 -49 14 -241 16 -2020 15 -1856
0 -1969 -1 -2021 -18z"/>
<path d="M2157 7840 c-25 -20 -27 -27 -27 -89 0 -85 16 -111 70 -111 30 0 43
6 60 28 19 23 21 37 18 90 -4 69 -17 88 -63 98 -22 4 -38 0 -58 -16z"/>
<path d="M2716 7837 c-23 -23 -26 -35 -26 -92 0 -77 20 -105 73 -105 57 0 77
30 77 113 0 64 -19 94 -67 103 -26 5 -37 1 -57 -19z"/>
<path d="M1512 7641 c-8 -5 -12 -21 -10 -37 3 -26 16 -35 147 -101 148 -75
180 -84 201 -58 25 30 0 50 -155 128 -85 42 -159 77 -163 77 -4 0 -13 -4 -20
-9z"/>
<path d="M2388 7639 c-32 -18 -21 -53 32 -103 27 -25 55 -46 62 -46 17 0 118
101 118 117 0 6 -7 19 -16 27 -18 19 -167 22 -196 5z"/>
<path d="M3265 7572 c-143 -73 -150 -78 -150 -107 0 -52 36 -45 204 39 129 65
151 79 151 99 0 27 -17 47 -39 47 -9 -1 -83 -36 -166 -78z"/>
<path d="M1570 7400 c0 -44 2 -80 5 -80 13 0 145 71 145 78 0 4 -34 24 -75 45
l-75 37 0 -80z"/>
<path d="M3323 7442 c-40 -20 -73 -41 -73 -47 0 -13 137 -81 145 -73 3 3 5 39
3 80 l-3 75 -72 -35z"/>
<path d="M2134 7394 c20 -108 95 -206 195 -253 49 -23 69 -26 156 -26 89 0
106 3 156 28 93 45 172 149 194 254 l7 33 -57 -30 c-87 -46 -202 -41 -277 12
-26 18 -27 18 -63 -7 -46 -31 -89 -39 -171 -32 -48 3 -75 12 -106 32 l-41 27
7 -38z"/>
<path d="M1658 7293 c-135 -69 -153 -81 -156 -105 -2 -18 3 -30 17 -37 16 -9
46 3 173 65 149 74 168 86 168 111 0 13 -27 43 -40 43 -5 0 -78 -35 -162 -77z"/>
<path d="M3128 7359 c-10 -5 -18 -21 -18 -34 0 -22 19 -34 160 -105 132 -66
164 -79 180 -70 12 6 20 21 20 35 0 22 -18 34 -160 105 -88 44 -161 80 -162
80 -2 0 -11 -5 -20 -11z"/>
<path d="M3224 7135 c-26 -55 -84 -101 -143 -114 -67 -14 -1116 -15 -1191 -1
-73 14 -142 71 -163 134 -4 12 -137 -45 -137 -59 0 -27 66 -119 110 -154 99
-78 75 -76 790 -76 l635 0 55 26 c31 14 73 41 95 60 42 37 95 114 95 139 0 9
-26 28 -65 48 l-64 31 -17 -34z"/>
<path d="M1710 6211 c-89 -29 -141 -60 -206 -125 -100 -100 -144 -209 -144
-356 0 -147 44 -256 144 -356 65 -65 127 -102 215 -128 50 -15 352 -16 3391
-16 3664 0 3372 -5 3495 57 64 33 165 134 198 198 78 155 78 335 0 490 -33 64
-134 165 -198 198 -123 62 170 57 -3499 56 -3174 0 -3344 -1 -3396 -18z"/>
<path d="M1710 4231 c-89 -29 -141 -60 -206 -125 -100 -100 -144 -209 -144
-356 0 -147 44 -256 144 -356 65 -65 127 -102 215 -128 50 -15 352 -16 3391
-16 3664 0 3372 -5 3495 57 64 33 165 134 198 198 78 155 78 335 0 490 -33 64
-134 165 -198 198 -123 62 170 57 -3499 56 -3174 0 -3344 -1 -3396 -18z"/>
<path d="M1710 2231 c-89 -29 -141 -60 -206 -125 -100 -100 -144 -209 -144
-356 0 -147 44 -256 144 -356 65 -65 127 -102 215 -128 50 -15 292 -16 2641
-16 2838 0 2622 -5 2745 57 64 33 165 134 198 198 78 155 78 335 0 490 -33 64
-134 165 -198 198 -123 62 94 57 -2749 56 -2455 0 -2594 -1 -2646 -18z"/>
</g>
</svg>
