<?xml version="1.0" encoding="UTF-8" standalone="no"?>
<svg
   version="1.0"
   width="1024pt"
   height="500pt"
   viewBox="0 0 1024 500"
   preserveAspectRatio="xMidYMid"
   id="svg16"
   sodipodi:docname="logo2 large.svg"
   inkscape:version="1.4 (86a8ad7, 2024-10-11)"
   inkscape:export-filename="logo2 large.png"
   inkscape:export-xdpi="72"
   inkscape:export-ydpi="72"
   xmlns:inkscape="http://www.inkscape.org/namespaces/inkscape"
   xmlns:sodipodi="http://sodipodi.sourceforge.net/DTD/sodipodi-0.dtd"
   xmlns="http://www.w3.org/2000/svg"
   xmlns:svg="http://www.w3.org/2000/svg">
  <defs
     id="defs16" />
  <sodipodi:namedview
     id="namedview16"
     pagecolor="#ffffff"
     bordercolor="#000000"
     borderopacity="0.25"
     inkscape:showpageshadow="2"
     inkscape:pageopacity="0.0"
     inkscape:pagecheckerboard="0"
     inkscape:deskcolor="#d1d1d1"
     inkscape:document-units="pt"
     inkscape:zoom="0.61889521"
     inkscape:cx="1000.9772"
     inkscape:cy="647.92875"
     inkscape:window-width="1924"
     inkscape:window-height="1286"
     inkscape:window-x="539"
     inkscape:window-y="36"
     inkscape:window-maximized="0"
     inkscape:current-layer="g16" />
  <metadata
     id="metadata1">
Created by potrace 1.16, written by Peter Selinger 2001-2019
</metadata>
  <g
     transform="matrix(0.0639872,0,0,-0.0639872,-77.022592,571.12211)"
     fill="#000000"
     stroke="none"
     id="g16">
    <path
       d="m 1660,8748 c -24,-13 -53,-36 -64,-51 -20,-28 -21,-42 -24,-512 l -3,-484 70,-36 c 39,-19 73,-35 76,-35 3,0 5,78 5,173 v 172 l 111,110 c 182,181 182,186 8,361 -95,96 -120,126 -117,144 1,13 9,25 16,28 8,2 92,-74 191,-172 l 177,-176 h 379 380 l 176,176 c 126,126 182,175 193,171 33,-13 12,-45 -109,-167 l -125,-127 v -48 -48 l 125,-127 125,-126 v -172 c 0,-95 2,-172 5,-172 3,0 37,16 75,37 l 70,36 v 465 c 0,444 -1,468 -20,506 -25,51 -76,87 -134,93 -82,10 -108,-7 -287,-183 l -165,-164 h -309 -309 l -162,160 c -94,94 -176,166 -197,175 -51,21 -106,19 -157,-7 z m 1590,-475 v -178 l -85,85 c -47,47 -85,89 -85,95 0,8 159,175 167,175 2,0 3,-80 3,-177 z m -1407,58 c 57,-61 58,-57 -47,-161 l -76,-74 v 173 173 l 38,-30 c 21,-17 59,-53 85,-81 z"
       id="path1"
       sodipodi:insensitive="true" />
    <path
       d="m 2157,7840 c -25,-20 -27,-27 -27,-89 0,-85 16,-111 70,-111 30,0 43,6 60,28 19,23 21,37 18,90 -4,69 -17,88 -63,98 -22,4 -38,0 -58,-16 z"
       id="path3"
       sodipodi:insensitive="true" />
    <path
       d="m 2716,7837 c -23,-23 -26,-35 -26,-92 0,-77 20,-105 73,-105 57,0 77,30 77,113 0,64 -19,94 -67,103 -26,5 -37,1 -57,-19 z"
       id="path4"
       sodipodi:insensitive="true" />
    <path
       d="m 1512,7641 c -8,-5 -12,-21 -10,-37 3,-26 16,-35 147,-101 148,-75 180,-84 201,-58 25,30 0,50 -155,128 -85,42 -159,77 -163,77 -4,0 -13,-4 -20,-9 z"
       id="path5"
       sodipodi:insensitive="true" />
    <path
       d="m 2388,7639 c -32,-18 -21,-53 32,-103 27,-25 55,-46 62,-46 17,0 118,101 118,117 0,6 -7,19 -16,27 -18,19 -167,22 -196,5 z"
       id="path6"
       sodipodi:insensitive="true" />
    <path
       d="m 3265,7572 c -143,-73 -150,-78 -150,-107 0,-52 36,-45 204,39 129,65 151,79 151,99 0,27 -17,47 -39,47 -9,-1 -83,-36 -166,-78 z"
       id="path7"
       sodipodi:insensitive="true" />
    <path
       d="m 1570,7400 c 0,-44 2,-80 5,-80 13,0 145,71 145,78 0,4 -34,24 -75,45 l -75,37 z"
       id="path8"
       sodipodi:insensitive="true" />
    <path
       d="m 3323,7442 c -40,-20 -73,-41 -73,-47 0,-13 137,-81 145,-73 3,3 5,39 3,80 l -3,75 z"
       id="path9"
       sodipodi:insensitive="true" />
    <path
       d="m 2134,7394 c 20,-108 95,-206 195,-253 49,-23 69,-26 156,-26 89,0 106,3 156,28 93,45 172,149 194,254 l 7,33 -57,-30 c -87,-46 -202,-41 -277,12 -26,18 -27,18 -63,-7 -46,-31 -89,-39 -171,-32 -48,3 -75,12 -106,32 l -41,27 z"
       id="path10"
       sodipodi:insensitive="true" />
    <path
       d="m 1658,7293 c -135,-69 -153,-81 -156,-105 -2,-18 3,-30 17,-37 16,-9 46,3 173,65 149,74 168,86 168,111 0,13 -27,43 -40,43 -5,0 -78,-35 -162,-77 z"
       id="path11"
       sodipodi:insensitive="true" />
    <path
       d="m 3128,7359 c -10,-5 -18,-21 -18,-34 0,-22 19,-34 160,-105 132,-66 164,-79 180,-70 12,6 20,21 20,35 0,22 -18,34 -160,105 -88,44 -161,80 -162,80 -2,0 -11,-5 -20,-11 z"
       id="path12"
       sodipodi:insensitive="true" />
    <path
       d="m 3224,7135 c -26,-55 -84,-101 -143,-114 -67,-14 -1116,-15 -1191,-1 -73,14 -142,71 -163,134 -4,12 -137,-45 -137,-59 0,-27 66,-119 110,-154 99,-78 75,-76 790,-76 h 635 l 55,26 c 31,14 73,41 95,60 42,37 95,114 95,139 0,9 -26,28 -65,48 l -64,31 z"
       id="path13"
       sodipodi:insensitive="true" />
    <path
       d="m 4460,8191 c -89,-29 -141,-60 -206,-125 -100,-100 -144,-209 -144,-356 0,-147 44,-256 144,-356 65,-65 127,-102 215,-128 49,-14 241,-16 2016,-16 1775,0 10180.857,2 10229.857,16 88,26 150,63 215,128 100,100 144,209 144,356 0,147 -44,256 -144,356 -65,65 -127,102 -215,128 -49,14 -8454.857,16 -10233.857,15 -1856,0 -1969,-1 -2021,-18 z"
       id="path2"
       sodipodi:nodetypes="cssscscsssccc"
       transform="translate(-7.8140629e-6,-3.9070315e-5)" />
    <path
       d="m 1710,6213.326 c -89,-29 -141,-60 -206,-125 -100,-100 -144,-209 -144,-356 0,-147 44,-256 144,-356 65,-65 127,-102 215,-128 49,-14 240.9996,-16 2015.9996,-16 1775,0 12930.8574,1.9941 12979.8574,15.9941 88,26 150,63 215,128 100,100 144,209 144,356 0,147 -44,256 -144,356 -65,65 -127,102 -215,128 -49,14 -11204.8574,16.0059 -12983.8574,15.0059 -1856,0 -1968.9996,-1 -2020.9996,-18 z"
       id="path2-0"
       sodipodi:nodetypes="cssscscsssccc" />
    <path
       d="m 1710,4230.8982 c -89,-29 -141,-60 -206,-125 -100,-100 -144,-209 -144,-356 0,-147 44,-256 144,-356 65,-65 127,-102 215,-128 49,-14 241,-16 2016,-16 1775,0 12930.857,2 12979.857,16 88,26 150,63 215,128 100,100 144,209 144,356 0,147 -44,256 -144,356 -65,65 -127,102 -215,128 -49,14 -11204.857,16 -12983.857,15 -1856,0 -1969,-1 -2021,-18 z"
       id="path2-8"
       sodipodi:nodetypes="cssscscsssccc" />
    <path
       d="m 1710,2230.8263 c -89,-29 -141,-60 -206,-125 -100,-100 -144,-209 -144,-356 0,-147 44,-256 144,-356 65,-65 127,-102 215,-128 49,-14 241,-16 2016,-16 1775,0 10180.857,2 10229.857,16 88,26 150,63 215,128 100,100 144,209 144,356 0,147 -44,256 -144,356 -65,65 -127,102 -215,128 -49,14 -8454.857,16 -10233.857,15 -1856,0 -1969,-1 -2021,-18 z"
       id="path2-2"
       sodipodi:nodetypes="cssscscsssccc" />
  </g>
</svg>
